<?xml version="1.0" encoding="iso-8859-1"?>
<!-- Generator: Adobe Illustrator 19.0.0, SVG Export Plug-In . SVG Version: 6.00 Build 0)  -->
<svg version="1.1" id="Layer_1" xmlns="http://www.w3.org/2000/svg" xmlns:xlink="http://www.w3.org/1999/xlink" x="0px" y="0px"
	 viewBox="0 0 512 512" style="enable-background:new 0 0 512 512;" xml:space="preserve">
<path style="fill:#FB5858;" d="M256,127.064c-9.425,0-17.067-7.641-17.067-17.067v-92.93C238.933,7.641,246.575,0,256,0
	c9.425,0,17.067,7.641,17.067,17.067v92.93C273.067,119.422,265.425,127.064,256,127.064z"/>
<path style="fill:#F72349;" d="M256,0v127.064c9.425,0,17.067-7.641,17.067-17.067v-92.93C273.067,7.641,265.425,0,256,0z"/>
<path style="fill:#FF835D;" d="M420.23,291.295H91.77c-9.425,0-17.067-7.641-17.067-17.067c0-99.967,81.33-181.297,181.297-181.297
	s181.297,81.329,181.297,181.297C437.297,283.654,429.656,291.295,420.23,291.295z"/>
<path style="fill:#FB5858;" d="M256,92.93v198.364h164.23c9.425,0,17.067-7.641,17.067-17.067
	C437.297,174.26,355.967,92.93,256,92.93z"/>
<path style="fill:#FAE8AC;" d="M255.992,389.155c-63.376,0-114.936-51.561-114.936-114.937c0-9.425,7.641-17.067,17.067-17.067
	h195.739c9.425,0,17.067,7.641,17.067,17.067C370.928,337.595,319.367,389.155,255.992,389.155z"/>
<path style="fill:#F6D86E;" d="M370.928,274.219c0-9.425-7.641-17.067-17.067-17.067H256v132.003
	C319.372,389.151,370.928,337.592,370.928,274.219z"/>
<g>
	<path style="fill:#FAE8AC;" d="M256,512c-9.425,0-17.067-7.641-17.067-17.067v-46.466c0-9.425,7.641-17.067,17.067-17.067
		c9.425,0,17.067,7.641,17.067,17.067v46.466C273.067,504.359,265.425,512,256,512z"/>
	<path style="fill:#FAE8AC;" d="M87.866,442.359c-6.665-6.665-6.665-17.471,0-24.136l32.856-32.856
		c6.664-6.665,17.471-6.665,24.136,0c6.665,6.665,6.665,17.471,0,24.136l-32.856,32.856
		C105.338,449.024,94.53,449.025,87.866,442.359z"/>
</g>
<path style="fill:#FB5858;" d="M482.835,291.295H29.165c-9.425,0-17.067-7.641-17.067-17.067s7.641-17.067,17.067-17.067h453.671
	c9.425,0,17.067,7.641,17.067,17.067S492.261,291.295,482.835,291.295z"/>
<path style="fill:#F6D86E;" d="M256,431.401V512c9.425,0,17.067-7.641,17.067-17.067v-46.466
	C273.067,439.042,265.425,431.401,256,431.401z"/>
<path style="fill:#F72349;" d="M482.835,257.162H256v34.133h226.835c9.425,0,17.067-7.641,17.067-17.067
	S492.261,257.162,482.835,257.162z"/>
<path style="fill:#F6D86E;" d="M399.999,442.359l-32.856-32.856c-6.665-6.665-6.665-17.471,0-24.136
	c6.664-6.664,17.471-6.664,24.136,0l32.856,32.856c6.665,6.665,6.665,17.471,0,24.136
	C417.47,449.024,406.663,449.025,399.999,442.359z"/>
<g>
</g>
<g>
</g>
<g>
</g>
<g>
</g>
<g>
</g>
<g>
</g>
<g>
</g>
<g>
</g>
<g>
</g>
<g>
</g>
<g>
</g>
<g>
</g>
<g>
</g>
<g>
</g>
<g>
</g>
</svg>
